<svg width="69" height="69" viewBox="0 0 69 69" fill="none" xmlns="http://www.w3.org/2000/svg">
<rect width="69" height="69" rx="5" fill="#004643"/>
<path d="M22.75 51V31.5C22.3 31.825 21.7625 32.1625 21.1375 32.5125C20.5375 32.8375 19.9125 33.15 19.2625 33.45C18.6375 33.725 18 33.9625 17.35 34.1625L15.8875 30.375C17.3625 29.8 18.85 29.0625 20.35 28.1625C21.85 27.2625 23.1375 26.2125 24.2125 25.0125H27.6625V51H22.75ZM42.9795 51.5625C42.0545 51.5625 41.1045 51.475 40.1295 51.3C39.1545 51.15 38.2795 50.975 37.5045 50.775C36.7545 50.55 36.192 50.3625 35.817 50.2125L36.7545 46.125C37.3045 46.375 38.092 46.65 39.117 46.95C40.142 47.225 41.367 47.3625 42.792 47.3625C44.067 47.3625 45.0795 47.1875 45.8295 46.8375C46.6045 46.4625 47.167 45.975 47.517 45.375C47.867 44.775 48.042 44.1375 48.042 43.4625C48.042 42.3875 47.7295 41.4875 47.1045 40.7625C46.5045 40.0375 45.442 39.4875 43.917 39.1125C42.392 38.7125 40.242 38.5125 37.467 38.5125C37.617 37.3125 37.742 36.1375 37.842 34.9875C37.967 33.8125 38.067 32.6625 38.142 31.5375C38.242 30.4125 38.317 29.3 38.367 28.2C38.417 27.1 38.467 26.0375 38.517 25.0125H52.0545V29.1375H42.642C42.617 29.5875 42.592 30.0625 42.567 30.5625C42.542 31.0625 42.5045 31.5625 42.4545 32.0625C42.4045 32.5625 42.3545 33.0375 42.3045 33.4875C42.2795 33.9375 42.242 34.3375 42.192 34.6875C45.892 34.8875 48.617 35.725 50.367 37.2C52.117 38.675 52.992 40.7 52.992 43.275C52.992 44.85 52.6295 46.2625 51.9045 47.5125C51.1795 48.7625 50.067 49.75 48.567 50.475C47.092 51.2 45.2295 51.5625 42.9795 51.5625Z" fill="white"/>
</svg>
