<svg width="513" height="512" viewBox="0 0 513 512" fill="none" xmlns="http://www.w3.org/2000/svg">
<rect x="0.5" width="512" height="512" fill="#004643"/>
<path d="M134.913 399V191.173C130.117 194.637 124.389 198.234 117.728 201.964C111.333 205.428 104.672 208.759 97.7443 211.956C91.0832 214.887 84.2889 217.418 77.3613 219.55L61.7743 179.183C77.4945 173.055 93.348 165.195 109.335 155.603C125.321 146.011 139.043 134.82 150.5 122.031H187.27V399H134.913ZM350.515 404.995C340.656 404.995 330.531 404.062 320.14 402.197C309.749 400.599 300.423 398.734 292.163 396.602C284.17 394.204 278.175 392.206 274.178 390.607L284.17 347.043C290.032 349.708 298.425 352.639 309.349 355.836C320.273 358.767 333.329 360.232 348.516 360.232C362.105 360.232 372.896 358.367 380.889 354.637C389.149 350.64 395.144 345.445 398.874 339.05C402.604 332.655 404.47 325.861 404.47 318.667C404.47 307.21 401.139 297.618 394.478 289.891C388.083 282.164 376.759 276.302 360.506 272.306C344.253 268.043 321.339 265.911 291.764 265.911C293.362 253.122 294.694 240.599 295.76 228.342C297.092 215.82 298.158 203.563 298.958 191.573C300.023 179.583 300.823 167.726 301.356 156.003C301.888 144.279 302.421 132.955 302.954 122.031H447.234V165.994H346.918C346.651 170.79 346.385 175.853 346.118 181.182C345.852 186.511 345.452 191.84 344.919 197.168C344.386 202.497 343.853 207.56 343.321 212.356C343.054 217.152 342.654 221.415 342.122 225.145C381.555 227.277 410.598 236.203 429.249 251.923C447.9 267.643 457.226 289.225 457.226 316.669C457.226 333.455 453.362 348.509 445.635 361.831C437.908 375.153 426.052 385.678 410.065 393.405C394.345 401.132 374.495 404.995 350.515 404.995Z" fill="white"/>
</svg>
